<?xml version="1.0" encoding="UTF-8" standalone="no"?>
<svg
   xmlns:dc="http://purl.org/dc/elements/1.1/"
   xmlns:cc="http://creativecommons.org/ns#"
   xmlns:rdf="http://www.w3.org/1999/02/22-rdf-syntax-ns#"
   xmlns:svg="http://www.w3.org/2000/svg"
   xmlns="http://www.w3.org/2000/svg"
   xmlns:sodipodi="http://sodipodi.sourceforge.net/DTD/sodipodi-0.dtd"
   xmlns:inkscape="http://www.inkscape.org/namespaces/inkscape"
   width="256px"
   height="256px"
   viewBox="0 0 256 256"
   version="1.1"
   preserveAspectRatio="xMidYMid"
   id="svg8"
   sodipodi:docname="devtool-icon-yarn.svg"
   inkscape:version="0.92.2 5c3e80d, 2017-08-06">
  <metadata
     id="metadata14">
    <rdf:RDF>
      <cc:Work
         rdf:about="">
        <dc:format>image/svg+xml</dc:format>
        <dc:type
           rdf:resource="http://purl.org/dc/dcmitype/StillImage" />
        <dc:title></dc:title>
      </cc:Work>
    </rdf:RDF>
  </metadata>
  <defs
     id="defs12" />
  <sodipodi:namedview
     pagecolor="#ffffff"
     bordercolor="#666666"
     borderopacity="1"
     objecttolerance="10"
     gridtolerance="10"
     guidetolerance="10"
     inkscape:pageopacity="0"
     inkscape:pageshadow="2"
     inkscape:window-width="1886"
     inkscape:window-height="1031"
     id="namedview10"
     showgrid="false"
     inkscape:zoom="3.1859477"
     inkscape:cx="107.82754"
     inkscape:cy="128.02362"
     inkscape:window-x="15"
     inkscape:window-y="30"
     inkscape:window-maximized="1"
     inkscape:current-layer="svg8" />
  <g
     id="g6"
     transform="matrix(0.89814145,0,0,0.93376119,26.077717,0.01457197)">
    <path
       style="fill:#368fb9;stroke-width:1.49611723"
       d="M 127.46555,0.25523407 C 113.26046,0.54818373 104.32476,12.992572 99.102905,23.959208 83.459393,25.390711 69.948298,34.068262 58.731289,43.701189 45.016304,46.946096 38.540408,60.436848 36.486194,72.454649 c -1.401729,9.445984 0.357725,19.334379 5.240171,27.719761 -18.121121,15.31769 -27.01013,38.59983 -27.162654,60.98182 -17.0131103,16.18375 -18.8179483,43.01101 -5.6200656,61.78892 2.2402146,6.01176 1.7865576,13.45764 7.8270886,17.95214 11.376428,10.55861 29.22391,11.99352 43.841953,8.86137 18.717798,11.3035 41.866233,4.09704 62.188583,3.91104 13.06054,-0.60332 26.4182,-2.75551 37.59474,-9.35699 23.22055,-6.57783 43.80056,-19.74216 64.72424,-30.18362 11.80179,-2.90605 26.16583,-7.1276 29.6169,-19.71652 6.1565,-16.78404 -10.87541,-35.49206 -29.50232,-32.82022 -15.89406,0.53363 -30.34457,7.79869 -43.70026,15.26738 -1.03487,-18.23143 -8.71319,-36.02853 -21.28931,-49.92842 20.45011,-28.59975 25.26766,-67.419433 10.04918,-99.010112 -3.77481,-5.59444 -11.05624,-8.79427 -18.04511,-8.150542 C 147.65996,10.312712 140.07261,-0.47609861 127.46555,0.25523407 Z M 127.7158,24.157449 c 5.35516,7.525951 8.17665,16.163065 12.76576,24.080631 4.0128,-0.297916 8.43042,-5.442128 11.2733,-4.735129 8.85998,27.570643 1.32028,58.800839 -18.47326,80.604829 -3.60008,5.49723 0.77571,11.35253 5.84319,14.19691 17.55828,16.05971 21.65986,40.93664 16.89034,62.66966 1.65611,8.98634 13.67488,6.04029 19.824,3.57686 18.71161,-5.57074 34.17982,-23.06327 55.15747,-19.78729 3.49499,3.86909 -4.00628,6.30085 -7.1487,6.02085 -24.59812,7.25423 -43.6701,25.4308 -68.86994,31.50051 -9.64195,3.11227 -18.05878,8.6765 -28.67544,8.46315 -16.62626,1.62379 -33.968626,3.60311 -50.587417,1.82557 -5.740585,-4.01149 -0.812536,-10.43304 4.724592,-11.47817 5.666499,-3.11926 1.102614,-9.6287 -3.829124,-10.68519 -2.863867,-4.65222 -11.155648,-8.7988 -14.517497,-2.27411 -3.084887,7.67304 -3.133436,22.26754 -15.717491,20.66522 -3.746641,-0.12796 -15.391674,-0.86979 -10.842146,-6.76284 4.190621,-5.48978 8.488825,-10.91557 11.547669,-17.08558 -6.33637,0.8093 -12.151909,6.14846 -18.349638,5.96991 -8.376147,-12.3897 -4.954309,-29.97451 7.796937,-38.51541 5.216292,-7.31725 0.211557,-16.63465 3.253248,-24.65271 C 43.25785,129.09153 58.079482,114.19999 74.415616,104.3913 63.805943,95.158873 53.602435,77.995794 64.746333,65.844723 c 6.803862,-2.492429 12.901636,-6.00482 17.523508,-11.40736 9.04643,-7.142261 21.592839,-10.082731 33.147539,-7.705916 3.77245,-7.303647 5.35521,-18.308109 12.29842,-22.573998 z"
       id="path4"
       inkscape:connector-curvature="0" />
  </g>
</svg>
